<svg width="50" height="48" viewBox="0 0 50 48" fill="none" xmlns="http://www.w3.org/2000/svg">
<path d="M49.1519 0H0.151855V48H49.1519V0Z" fill="#FF5A3C"/>
<path d="M33.5558 24.3584L29.4478 19.7674C29.3795 19.6864 29.2944 19.6213 29.1984 19.5766C29.1023 19.5319 28.9977 19.5088 28.8918 19.5088C28.7859 19.5088 28.6812 19.5319 28.5852 19.5766C28.4891 19.6213 28.404 19.6864 28.3358 19.7674C28.187 19.9414 28.1052 20.1629 28.1052 20.3919C28.1052 20.6209 28.187 20.8424 28.3358 21.0164L31.0938 24.0984H14.4418C14.2253 24.1237 14.0257 24.2276 13.8808 24.3904C13.7359 24.5532 13.6559 24.7635 13.6559 24.9814C13.6559 25.1993 13.7359 25.4096 13.8808 25.5724C14.0257 25.7352 14.2253 25.8391 14.4418 25.8644H31.0908L28.3328 28.9464C28.184 29.1204 28.1022 29.3419 28.1022 29.5709C28.1022 29.7999 28.184 30.0214 28.3328 30.1954C28.401 30.2764 28.4861 30.3415 28.5822 30.3862C28.6782 30.4309 28.7829 30.454 28.8888 30.454C28.9947 30.454 29.0993 30.4309 29.1954 30.3862C29.2914 30.3415 29.3765 30.2764 29.4448 30.1954L33.5528 25.6044C33.701 25.4308 33.7827 25.2102 33.7833 24.9819C33.7838 24.7537 33.7032 24.5327 33.5558 24.3584Z" fill="white"/>
</svg>
